<svg width="50" height="26" viewBox="0 0 50 26" fill="none" xmlns="http://www.w3.org/2000/svg">
<rect y="0.679443" width="50" height="25" rx="10" fill="#FF9898" fill-opacity="0.8"/>
<path d="M15.6799 12.6814C16.2025 12.7748 16.6459 13.0501 17.0099 13.5074C17.3739 13.9648 17.5559 14.4828 17.5559 15.0614C17.5559 15.5561 17.4252 16.0041 17.1639 16.4054C16.9119 16.7974 16.5432 17.1101 16.0579 17.3434C15.5725 17.5674 15.0079 17.6794 14.3639 17.6794H10.4719V7.94944H14.1819C14.8445 7.94944 15.4139 8.06144 15.8899 8.28544C16.3659 8.50944 16.7252 8.81278 16.9679 9.19544C17.2105 9.56878 17.3319 9.98878 17.3319 10.4554C17.3319 11.0154 17.1825 11.4821 16.8839 11.8554C16.5852 12.2288 16.1839 12.5041 15.6799 12.6814ZM12.0679 12.0374H14.0419C14.5645 12.0374 14.9705 11.9208 15.2599 11.6874C15.5585 11.4448 15.7079 11.0994 15.7079 10.6514C15.7079 10.2128 15.5585 9.87211 15.2599 9.62944C14.9705 9.37744 14.5645 9.25144 14.0419 9.25144H12.0679V12.0374ZM14.2239 16.3774C14.7652 16.3774 15.1899 16.2468 15.4979 15.9854C15.8059 15.7241 15.9599 15.3601 15.9599 14.8934C15.9599 14.4174 15.7965 14.0394 15.4699 13.7594C15.1432 13.4794 14.7092 13.3394 14.1679 13.3394H12.0679V16.3774H14.2239ZM26.3602 13.6334C26.3602 13.9228 26.3416 14.1841 26.3042 14.4174H20.4102C20.4569 15.0334 20.6856 15.5281 21.0962 15.9014C21.5069 16.2748 22.0109 16.4614 22.6082 16.4614C23.4669 16.4614 24.0736 16.1021 24.4282 15.3834H26.1502C25.9169 16.0928 25.4922 16.6761 24.8762 17.1334C24.2696 17.5814 23.5136 17.8054 22.6082 17.8054C21.8709 17.8054 21.2082 17.6421 20.6202 17.3154C20.0416 16.9794 19.5842 16.5128 19.2482 15.9154C18.9216 15.3088 18.7582 14.6088 18.7582 13.8154C18.7582 13.0221 18.9169 12.3268 19.2342 11.7294C19.5609 11.1228 20.0136 10.6561 20.5922 10.3294C21.1802 10.0028 21.8522 9.83944 22.6082 9.83944C23.3362 9.83944 23.9849 9.99811 24.5542 10.3154C25.1236 10.6328 25.5669 11.0808 25.8842 11.6594C26.2016 12.2288 26.3602 12.8868 26.3602 13.6334ZM24.6942 13.1294C24.6849 12.5414 24.4749 12.0701 24.0642 11.7154C23.6536 11.3608 23.1449 11.1834 22.5382 11.1834C21.9876 11.1834 21.5162 11.3608 21.1242 11.7154C20.7322 12.0608 20.4989 12.5321 20.4242 13.1294H24.6942ZM29.7929 11.2674V15.5374C29.7929 15.8268 29.8582 16.0368 29.9889 16.1674C30.1289 16.2888 30.3622 16.3494 30.6889 16.3494H31.6689V17.6794H30.4089C29.6902 17.6794 29.1395 17.5114 28.7569 17.1754C28.3742 16.8394 28.1829 16.2934 28.1829 15.5374V11.2674H27.2729V9.96544H28.1829V8.04744H29.7929V9.96544H31.6689V11.2674H29.7929ZM32.6078 13.7874C32.6078 13.0128 32.7665 12.3268 33.0838 11.7294C33.4105 11.1321 33.8492 10.6701 34.3998 10.3434C34.9598 10.0074 35.5758 9.83944 36.2478 9.83944C36.8545 9.83944 37.3818 9.96078 37.8298 10.2034C38.2872 10.4368 38.6512 10.7308 38.9218 11.0854V9.96544H40.5318V17.6794H38.9218V16.5314C38.6512 16.8954 38.2825 17.1988 37.8158 17.4414C37.3492 17.6841 36.8172 17.8054 36.2198 17.8054C35.5572 17.8054 34.9505 17.6374 34.3998 17.3014C33.8492 16.9561 33.4105 16.4801 33.0838 15.8734C32.7665 15.2574 32.6078 14.5621 32.6078 13.7874ZM38.9218 13.8154C38.9218 13.2834 38.8098 12.8214 38.5858 12.4294C38.3712 12.0374 38.0865 11.7388 37.7318 11.5334C37.3772 11.3281 36.9945 11.2254 36.5838 11.2254C36.1732 11.2254 35.7905 11.3281 35.4358 11.5334C35.0812 11.7294 34.7918 12.0234 34.5678 12.4154C34.3532 12.7981 34.2458 13.2554 34.2458 13.7874C34.2458 14.3194 34.3532 14.7861 34.5678 15.1874C34.7918 15.5888 35.0812 15.8968 35.4358 16.1114C35.7998 16.3168 36.1825 16.4194 36.5838 16.4194C36.9945 16.4194 37.3772 16.3168 37.7318 16.1114C38.0865 15.9061 38.3712 15.6074 38.5858 15.2154C38.8098 14.8141 38.9218 14.3474 38.9218 13.8154Z" fill="white"/>
</svg>
