<svg width="104" height="104" viewBox="0 0 104 104" fill="none" xmlns="http://www.w3.org/2000/svg">
<path d="M0 30C0 13.4315 13.4315 0 30 0H74C90.5685 0 104 13.4315 104 30V74C104 90.5685 90.5685 104 74 104H30C13.4315 104 0 90.5685 0 74V30Z" fill="url(#paint0_linear_5_58)"/>
<g clip-path="url(#clip0_5_58)">
<path d="M62.4493 65.7144C61.4832 65.7144 60.7 64.9106 60.7 63.919V48.8384C60.7 47.8468 61.4832 47.043 62.4493 47.043C63.4155 47.043 64.1986 47.8468 64.1986 48.8384V63.9191C64.1986 64.9106 63.4155 65.7144 62.4493 65.7144V65.7144ZM66.2385 71.8368L71.6769 66.3014C73.6501 64.293 74.7819 61.5052 74.7819 58.653V39.7719C74.7819 33.8323 70.0735 29 64.2861 29H45.9342C43.1472 29 40.5223 30.1092 38.5435 32.1235L33.105 37.6589C31.1317 39.6673 30 42.455 30 45.3074V64.1884C30 70.128 34.7084 74.9603 40.4957 74.9603H58.8476C61.6348 74.9603 64.2595 73.8511 66.2385 71.8368V71.8368ZM64.2861 32.5906C68.1444 32.5906 71.2833 35.8121 71.2833 39.7719V58.6529C71.2833 60.5545 70.5288 62.413 69.2133 63.7519L63.7749 69.2874C62.4556 70.6302 60.7058 71.3697 58.8476 71.3697H40.4957C36.6375 71.3697 33.4986 68.1482 33.4986 64.1884V45.3074C33.4986 43.4059 34.2531 41.5473 35.5686 40.2084L41.007 34.6729C42.3263 33.3301 44.0761 32.5906 45.9342 32.5906H64.2861ZM66.3456 40.1777L67.0812 39.442C67.7732 38.7502 67.7876 37.6135 67.1134 36.9033C66.4393 36.1931 65.3316 36.1783 64.6398 36.8703L63.9041 37.6059C62.5074 39.0027 60.6641 39.7719 58.714 39.7719H41.283C40.3168 39.7719 39.5336 40.5757 39.5336 41.5673C39.5336 42.5589 40.3168 43.3627 41.283 43.3627H58.7139C61.5814 43.3626 64.2917 42.2315 66.3456 40.1777V40.1777Z" fill="white"/>
</g>
<defs>
<linearGradient id="paint0_linear_5_58" x1="31" y1="-9.39648e-06" x2="104.587" y2="75.3118" gradientUnits="userSpaceOnUse">
<stop stop-color="#FF9898"/>
<stop offset="1" stop-color="#8054FF"/>
</linearGradient>
<clipPath id="clip0_5_58">
<rect width="44.7819" height="45.9603" fill="white" transform="translate(30 29)"/>
</clipPath>
</defs>
</svg>
