<svg width="104" height="104" viewBox="0 0 104 104" fill="none" xmlns="http://www.w3.org/2000/svg">
<path d="M0 30C0 13.4315 13.4315 0 30 0H74C90.5685 0 104 13.4315 104 30V74C104 90.5685 90.5685 104 74 104H30C13.4315 104 0 90.5685 0 74V30Z" fill="url(#paint0_linear_53_3231)"/>
<path d="M52.9999 58.396C51.0043 58.3961 49.0095 57.886 47.1904 56.8661L34.0737 49.5105C32.1716 48.444 30.9941 46.3815 31.0003 44.128C31.0065 41.8745 32.1955 39.8192 34.1034 38.7641L47.2532 31.4923C50.8516 29.5026 55.1481 29.5026 58.7465 31.4923L71.8963 38.7641C73.8042 39.8191 74.9932 41.8744 74.9994 44.128C75.0056 46.3815 73.8281 48.444 71.9261 49.5105L58.8092 56.8661C56.9907 57.886 54.9949 58.3959 52.9999 58.396ZM52.9999 33.5941C51.5781 33.5941 50.1565 33.9524 48.8605 34.6691L35.7108 41.9409C34.9164 42.3802 34.4404 43.2018 34.4379 44.1385C34.4353 45.0752 34.9065 45.8996 35.6986 46.3438L48.8155 53.6992C51.4359 55.1686 54.5643 55.1686 57.1846 53.6992L70.3016 46.3438C71.0936 45.8996 71.5649 45.0752 71.5623 44.1385C71.5598 43.2018 71.0838 42.3802 70.2894 41.9409L57.1392 34.6691C55.8432 33.9525 54.4216 33.5941 52.9999 33.5941V33.5941ZM48.057 33.0807H48.0578H48.057ZM58.8093 73.1275L74.0932 64.5571C74.9297 64.0881 75.2441 62.9988 74.7955 62.1244C74.3468 61.2498 73.305 60.9211 72.4685 61.3902L57.1845 69.9606C54.5643 71.43 51.4358 71.43 48.8087 69.9569L33.5248 61.4764C32.6861 61.0111 31.6458 61.3446 31.2009 62.2211C30.7559 63.0977 31.0748 64.1853 31.9133 64.6506L47.1905 73.1274C49.0096 74.1475 51.0044 74.6574 52.9999 74.6574C54.9949 74.6575 56.9907 74.1474 58.8093 73.1275V73.1275ZM58.8093 65.0418L74.0932 56.4714C74.9297 56.0023 75.2441 54.9131 74.7955 54.0386C74.3468 53.164 73.305 52.8355 72.4685 53.3044L57.1845 61.8749C54.5643 63.3443 51.4358 63.3442 48.8087 61.8712L33.5248 53.3906C32.6861 52.9253 31.6458 53.2589 31.2009 54.1354C30.7559 55.012 31.0748 56.0996 31.9133 56.5649L47.1905 65.0417C49.0096 66.0618 51.0044 66.5716 52.9999 66.5716C54.9949 66.5716 56.9907 66.0617 58.8093 65.0418V65.0418Z" fill="white"/>
<defs>
<linearGradient id="paint0_linear_53_3231" x1="31" y1="-9.39648e-06" x2="104.587" y2="75.3118" gradientUnits="userSpaceOnUse">
<stop stop-color="#FF9898"/>
<stop offset="1" stop-color="#8054FF"/>
</linearGradient>
</defs>
</svg>
