<svg width="275" height="213" viewBox="0 0 275 213" fill="none" xmlns="http://www.w3.org/2000/svg">
<path d="M259.496 128.713C239.615 110.157 207.237 110.653 187.327 129.804L172.678 143.895L158.353 130.116L185.573 103.934C208.962 81.4378 208.962 44.8227 185.573 22.3263L179.929 16.8971C168.581 5.99621 153.52 0 137.5 0C121.48 0 106.404 5.99621 95.0857 16.8971L89.4413 22.3263C66.0531 44.8227 66.0531 81.4378 89.4413 103.934L116.661 130.116L102.337 143.895L87.0981 129.237C77.1503 119.669 64.093 114.892 51.0209 114.892C37.9488 114.892 24.8915 119.669 14.9437 129.237C5.30547 138.522 0 150.841 0 163.953C0 177.065 5.30547 189.384 14.9437 198.654C24.5673 207.911 37.3741 213 51.0209 213C64.6677 213 77.4745 207.911 87.0981 198.654L102.337 183.997L117.943 199.037C123.161 204.055 130.087 206.834 137.471 206.834C144.854 206.834 151.795 204.069 157.012 199.051L172.678 183.983L187.327 198.073C197.172 207.542 210.288 212.759 224.244 212.759C238.201 212.759 250.094 207.925 259.496 199.165C269.488 189.837 275 177.32 275 163.939C275 150.557 269.488 138.04 259.496 128.713ZM66.2594 178.596C62.1919 182.509 56.7832 184.649 51.0209 184.649C45.2586 184.649 39.8499 182.494 35.7824 178.596C31.7149 174.698 29.4748 169.481 29.4748 163.939C29.4748 158.396 31.7149 153.194 35.7824 149.281C39.8499 145.369 45.2586 143.214 51.0209 143.214C56.7832 143.214 62.1919 145.369 66.2594 149.281L81.4979 163.939L66.2594 178.596ZM137.485 177.746L132.239 172.699L123.16 163.953L137.338 150.302L138.517 151.167L151.795 163.939L137.456 177.732L137.485 177.746ZM147.477 100.49L137.515 110.072L110.295 83.8902C98.4017 72.4506 98.4017 53.8241 110.295 42.3704L115.939 36.9412C121.701 31.3986 129.365 28.3367 137.515 28.3367C145.665 28.3367 153.328 31.3844 159.09 36.9412L164.735 42.3704C176.628 53.8099 176.628 72.4364 164.735 83.8902L147.477 100.49ZM238.982 178.823C234.929 182.608 229.624 184.479 224.244 184.479C218.467 184.479 212.631 182.324 208.181 178.043L193.532 163.953L208.181 149.863C216.772 141.598 230.596 141.244 238.982 149.069C243.211 153.01 245.54 158.297 245.54 163.953C245.54 169.609 243.211 174.896 238.982 178.837V178.823Z" fill="#222228"/>
</svg>
