<svg width="21" height="18" viewBox="0 0 21 18" fill="none" xmlns="http://www.w3.org/2000/svg">
<path d="M4.41914 15.9083V15.4083H4.91881V5.68646V5.18646H4.41881H1.1903H0.690299V5.68646V15.4083V15.9083H1.1903H3.91881H4.41881H4.41914ZM2.72197 4.85857L2.72427 4.85934H2.80523C3.48125 4.85934 4.06693 4.63321 4.48678 4.23016C4.90627 3.82747 5.13161 3.27486 5.13161 2.67988H5.13173L5.13149 2.66884C5.11835 2.07373 4.89751 1.52412 4.48309 1.12289C4.06766 0.720692 3.49148 0.5 2.82663 0.5C2.16295 0.5 1.57837 0.719563 1.15574 1.11851C0.732171 1.51834 0.5 2.07211 0.5 2.6798C0.5 3.88124 1.40705 4.8296 2.72197 4.85857ZM9.93434 5.74186V5.6868V5.1868H9.43434H6.206H5.68236L5.70653 5.70987C5.72687 6.15 5.72703 8.56148 5.72168 10.8886C5.71901 12.0464 5.71503 13.1758 5.71172 14.0158L5.70749 15.0261L5.70622 15.3071L5.70587 15.3809L5.70578 15.3998L5.70576 15.4046L5.70575 15.4058L5.70575 15.4061L6.20575 15.4086L5.70575 15.4062L6.20583 15.469V15.9083H9.43409H9.93409V15.4083V9.97975C9.93409 9.69176 9.9585 9.48938 10.0028 9.38167L10.0028 9.38168L10.0044 9.37776C10.1901 8.91537 10.5762 8.50944 11.197 8.50944C11.6333 8.50944 11.8792 8.66452 12.0393 8.89986C12.2212 9.1671 12.3324 9.59985 12.3324 10.2079V15.4083V15.9083H12.8324H16.0606H16.5606V15.4083V9.83407C16.5606 8.25514 16.1387 7.02627 15.3666 6.18785C14.5908 5.34537 13.5176 4.95854 12.344 4.95854C11.3719 4.95854 10.6442 5.233 10.0962 5.62024C10.0401 5.65988 9.98619 5.70049 9.93434 5.74186Z" fill="white"/>
</svg>
