<svg width="21" height="18" viewBox="0 0 21 18" fill="none" xmlns="http://www.w3.org/2000/svg">
<path d="M19.0946 2.35998L19.0946 2.35999C19.1044 2.35586 19.1066 2.35485 19.1102 2.35313C19.1139 2.35142 19.1191 2.34901 19.1347 2.34213L19.1348 2.34209C19.143 2.33848 19.1664 2.32821 19.1949 2.31892C19.2163 2.31193 19.2901 2.28805 19.3861 2.2931C19.5103 2.29965 19.653 2.35429 19.7557 2.48239C19.8361 2.5826 19.8556 2.68502 19.8613 2.71752C19.8683 2.75793 19.8693 2.79191 19.8696 2.80345C19.8699 2.81211 19.8699 2.82092 19.8699 2.82777C19.8774 3.05217 19.8051 3.27195 19.666 3.44802C19.2277 4.06109 18.7034 4.60776 18.1093 5.07114L18.0987 5.07941L18.0986 5.07926C18.0918 5.08424 18.0851 5.08902 18.0788 5.09351C18.0496 8.15101 17.2393 11.2597 14.9409 13.5424C11.9761 16.4916 7.55924 17.2711 3.66632 16.1972L3.66167 16.1959L3.66168 16.1959C2.90223 15.9785 2.16909 15.6778 1.4756 15.2993M19.0946 2.35998L13.5784 0.508401C12.9676 0.54702 12.3713 0.710987 11.8266 0.990089L11.8266 0.989912L11.8142 0.996705C11.2796 1.28998 10.8096 1.68823 10.4326 2.16756C10.0355 2.66256 9.74889 3.23679 9.59182 3.85173L9.58983 3.85953L9.58809 3.86738C9.50101 4.26065 9.466 4.66282 9.48329 5.0636C6.77579 4.5814 4.57122 3.53736 2.74801 1.46461C2.71536 1.42731 2.66548 1.37429 2.60028 1.32822C2.53302 1.2807 2.4165 1.21734 2.26103 1.21734C2.09916 1.21734 1.97674 1.28562 1.90097 1.34629C1.83147 1.40194 1.7833 1.46496 1.75461 1.50549L1.74968 1.51245L1.74499 1.51959C1.2145 2.32625 1.09614 3.3341 1.24619 4.25821C1.3344 4.80154 1.51874 5.33825 1.7874 5.81352C1.69214 5.80608 1.58306 5.82208 1.47062 5.88751C1.21832 6.03433 1.18991 6.29817 1.18519 6.38452C1.17147 6.55193 1.17173 6.72021 1.18598 6.88758L1.18693 6.89881L1.18839 6.90999C1.28902 7.67969 1.59209 8.40887 2.06665 9.02295C2.26901 9.28481 2.49945 9.52173 2.753 9.72993C2.7075 9.76163 2.66376 9.8027 2.62415 9.85556C2.44882 10.0895 2.52042 10.3441 2.55781 10.4424C3.15025 12.0523 4.32918 12.729 5.30597 13.0852C5.30091 13.0875 5.29583 13.0898 5.29073 13.0921C4.97794 13.2331 4.6462 13.3452 4.37708 13.4362C4.3226 13.4546 4.27069 13.4722 4.22202 13.4889L4.222 13.4889L4.21553 13.4912C3.29048 13.8238 2.30454 13.952 1.32544 13.8671C1.17723 13.8443 0.990372 13.8182 0.793828 13.9166C0.681531 13.9728 0.539265 14.0968 0.506343 14.3066C0.479281 14.4791 0.545008 14.6094 0.572508 14.6579C0.626069 14.7524 0.702874 14.8219 0.725478 14.8424C0.726454 14.8432 0.727329 14.844 0.728096 14.8447L0.756717 14.8708L0.789004 14.8921C1.01793 15.0433 1.24467 15.1748 1.4756 15.2993M19.0946 2.35998L19.091 2.36154C19.0838 2.36464 19.0765 2.36774 19.0693 2.37082C19.2138 2.12386 19.3311 1.86131 19.4188 1.58771L19.4427 1.51326V1.49014C19.4497 1.45783 19.4663 1.37266 19.4467 1.26843C19.4228 1.14085 19.3514 1.01856 19.2335 0.934242L19.2089 0.916688L19.1824 0.902214C19.0938 0.853812 18.9945 0.828436 18.8935 0.828436C18.7931 0.828436 18.6943 0.853534 18.6061 0.901404M19.0946 2.35998L18.6061 0.901404M1.4756 15.2993C1.47523 15.2991 1.47487 15.2989 1.4745 15.2987L1.69787 14.8895M1.4756 15.2993C1.47602 15.2995 1.47645 15.2997 1.47687 15.3L1.69807 14.8895M1.69787 14.8895L1.71409 14.8598C1.73337 14.8704 1.75269 14.8808 1.77205 14.8912C1.74739 14.8908 1.72273 14.8902 1.69807 14.8895M1.69787 14.8895L1.71407 14.8599L1.69807 14.8895M1.69787 14.8895C1.69794 14.8895 1.69801 14.8895 1.69807 14.8895M18.6061 0.901404C18.0059 1.22674 17.3704 1.48178 16.7124 1.66163C16.6873 1.63673 16.6618 1.61232 16.6358 1.58844L16.6358 1.58841L16.6315 1.58459C16.2799 1.26926 15.8809 1.01117 15.4492 0.819752L15.4493 0.819577L15.4365 0.814311C14.8483 0.572793 14.213 0.468183 13.5785 0.508396L18.6061 0.901404ZM18.4262 2.60889L18.7332 2.85722C18.7334 2.85698 18.7336 2.85673 18.7338 2.85648C18.7339 2.85628 18.7341 2.85607 18.7343 2.85587L18.4266 2.60876L18.4262 2.60889ZM18.8723 2.86175C18.8719 2.85785 18.8715 2.85411 18.8713 2.85059C18.872 2.84619 18.8734 2.84191 18.8753 2.83785H18.8951H19.2487C19.2436 2.84005 19.2384 2.84224 19.2332 2.84442L18.9212 2.8594L18.8723 2.86175ZM18.8732 2.83785L18.8706 2.84104L18.8705 2.84111C18.8705 2.83998 18.8704 2.8389 18.8703 2.83785H18.8732ZM18.8698 2.82251C18.8698 2.82228 18.8699 2.82439 18.8699 2.82949C18.8698 2.82526 18.8697 2.82274 18.8698 2.82251ZM18.4694 1.26188L18.4693 1.26214L18.4694 1.26188Z" fill="white"/>
</svg>
