<svg width="36" height="37" viewBox="0 0 36 37" fill="none" xmlns="http://www.w3.org/2000/svg">
<path d="M23.8335 24.6666L18.0001 18.625M18.0001 18.625L12.1668 24.6666M18.0001 18.625V32.2187M30.2355 28.2765C31.6579 27.4734 32.7815 26.2025 33.4291 24.6645C34.0767 23.1265 34.2113 21.409 33.8117 19.783C33.4121 18.1569 32.501 16.715 31.2224 15.6848C29.9437 14.6546 28.3701 14.0948 26.7501 14.0937H24.9126C24.4712 12.3254 23.6485 10.6837 22.5063 9.29208C21.3641 7.90047 19.9322 6.79514 18.3182 6.0592C16.7042 5.32326 14.9501 4.97586 13.1878 5.04311C11.4255 5.11036 9.70085 5.59051 8.14351 6.44747C6.58617 7.30442 5.23666 8.51589 4.19645 9.99078C3.15623 11.4657 2.45238 13.1656 2.1378 14.9628C1.82323 16.76 1.90611 18.6076 2.38023 20.3669C2.85434 22.1261 3.70735 23.7511 4.87513 25.1197" stroke="#ADA2FF" stroke-width="1.66667" stroke-linecap="round" stroke-linejoin="round"/>
</svg>
